<?xml version="1.0" standalone="no"?>
<!DOCTYPE svg PUBLIC "-//W3C//DTD SVG 20010904//EN"
 "http://www.w3.org/TR/2001/REC-SVG-20010904/DTD/svg10.dtd">
<svg version="1.0" xmlns="http://www.w3.org/2000/svg"
 width="700.000000pt" height="700.000000pt" viewBox="0 0 700.000000 700.000000"
 preserveAspectRatio="xMidYMid meet">
<metadata>
Created by potrace 1.11, written by Peter Selinger 2001-2013
</metadata>
<g transform="translate(0.000000,700.000000) scale(0.100000,-0.100000)"
fill="#000000" stroke="none">
<path d="M3297 6331 c-8 -14 -130 -226 -272 -471 -142 -245 -266 -458 -275
-475 -9 -16 -67 -115 -127 -220 -189 -325 -213 -368 -213 -380 0 -7 11 -29 25
-49 14 -20 25 -39 25 -41 0 -1 22 -41 49 -87 27 -45 59 -102 72 -124 13 -23
183 -317 378 -653 l354 -611 910 2 910 3 17 30 c10 17 115 199 235 405 120
206 225 389 235 405 35 62 126 217 141 243 9 15 26 45 39 67 51 90 214 371
226 390 13 19 4 39 -101 221 -63 109 -119 206 -125 214 -6 8 -13 22 -17 30 -4
8 -16 31 -28 50 -12 19 -33 55 -47 80 -14 25 -133 230 -263 455 -280 482 -274
472 -292 508 -8 15 -20 28 -26 29 -7 0 -418 2 -915 3 l-902 1 -13 -25z m1796
-277 c38 -65 146 -252 240 -414 94 -162 201 -347 237 -410 215 -369 250 -431
250 -440 0 -11 -23 -53 -147 -265 -38 -66 -197 -340 -352 -610 -156 -269 -289
-495 -296 -500 -13 -11 -1598 -15 -1608 -5 -2 3 -88 149 -189 325 -102 176
-266 460 -365 630 -99 171 -194 336 -212 368 l-32 58 78 134 c43 75 83 143 88
153 18 31 196 336 205 352 18 30 305 528 364 632 49 86 66 107 86 110 14 2
376 3 804 2 l779 -1 70 -119z"/>
<path d="M1266 3788 c-12 -20 -85 -147 -151 -263 -13 -22 -118 -204 -234 -404
-116 -200 -211 -367 -211 -371 0 -4 64 -117 141 -251 78 -134 150 -259 160
-276 69 -120 189 -328 255 -440 l55 -92 610 0 609 0 24 37 c12 20 34 57 48 82
25 45 303 524 403 695 142 244 145 249 131 265 -7 8 -15 20 -17 25 -4 10 -81
147 -99 175 -24 38 -130 222 -130 226 0 2 -11 21 -24 42 -20 32 -65 109 -235
402 -14 25 -42 73 -61 108 l-35 62 -612 0 -613 0 -14 -22z m1131 -171 c6 -4
26 -33 44 -65 52 -92 62 -109 154 -267 48 -82 97 -168 110 -190 12 -22 61
-107 109 -189 48 -82 86 -154 84 -161 -2 -6 -115 -205 -252 -441 l-249 -429
-501 2 c-276 0 -504 1 -508 2 -5 1 -51 77 -156 261 -11 19 -82 143 -159 275
-77 132 -152 262 -167 289 l-27 48 36 60 c19 33 35 61 35 64 0 2 11 21 23 42
13 20 108 183 212 362 103 179 191 330 196 335 9 12 997 14 1016 2z"/>
<path d="M3591 2855 c-8 -9 -489 -838 -544 -935 -10 -19 -30 -53 -42 -75 l-23
-40 195 -335 c108 -184 204 -351 215 -370 11 -19 61 -106 111 -193 l91 -157
614 2 614 3 144 245 c79 135 147 252 151 260 4 8 76 134 160 279 84 145 153
266 153 269 0 5 -121 215 -226 395 -35 59 -64 109 -64 112 0 3 -16 29 -35 60
-19 30 -40 65 -45 77 -6 13 -62 111 -125 218 l-114 195 -611 0 c-413 1 -614
-2 -619 -10z m1133 -191 c6 -10 23 -39 37 -64 14 -25 73 -126 131 -225 57 -99
116 -200 130 -225 14 -25 64 -112 112 -193 l86 -149 -253 -436 -253 -437 -507
-1 -507 0 -250 432 c-137 238 -250 437 -250 444 0 10 41 83 189 335 26 44 81
138 122 208 41 70 83 142 93 160 10 18 32 57 49 87 39 72 44 78 70 82 12 2
240 2 506 2 458 -1 484 -2 495 -20z"/>
</g>
</svg>
